Coordinates
version=1
nRows=11
nColumns=40
inDegrees=yes

Units are S.I. units (second, meters, Newtons, ...)
Angles are in degrees.

endheader
time	pelvis_tilt	pelvis_list	pelvis_rotation	pelvis_tx	pelvis_ty	pelvis_tz	hip_flexion_r	hip_adduction_r	hip_rotation_r	knee_angle_r	knee_angle_r_beta	ankle_angle_r	subtalar_angle_r	mtp_angle_r	hip_flexion_l	hip_adduction_l	hip_rotation_l	knee_angle_l	knee_angle_l_beta	ankle_angle_l	subtalar_angle_l	mtp_angle_l	lumbar_extension	lumbar_bending	lumbar_rotation	arm_flex_r	arm_add_r	arm_rot_r	elbow_flex_r	pro_sup_r	wrist_flex_r	wrist_dev_r	arm_flex_l	arm_add_l	arm_rot_l	elbow_flex_l	pro_sup_l	wrist_flex_l	wrist_dev_l
     21.12750000	     -7.06062710	     -4.56602407	     16.16110433	      1.03590305	      0.91730161	      0.48285444	      5.53438654	      2.37765265	    -17.72264315	     19.26274992	     19.26274992	     18.58133921	    -10.83915127	      0.55159175	     29.05232066	     -1.44646582	      8.42381485	     24.59694614	     24.59694614	      6.57096681	     -9.63814131	      0.33583982	     -9.22572333	      1.97647091	      4.07121473	     56.56171901	    -17.88957049	     -2.87792288	     93.33996587	     44.60965915	      0.00000000	      0.00000000	    -16.67545793	    -13.68693700	     21.94257668	     33.51997992	     43.21550743	      0.00000000	      0.00000000
     21.15142857	     -7.03850235	     -4.56267800	     15.77348568	      1.03732135	      0.91814722	      0.47842739	      4.79032116	      2.14278179	    -17.94118570	     18.81362157	     18.81362157	     18.29314821	     -9.76396437	      0.29818402	     28.56913100	     -1.32931769	      8.37662114	     24.79849987	     24.79849987	      7.13429196	    -10.11641143	      0.88558704	     -9.19039444	      2.06774509	      4.39361052	     56.42259506	    -18.16478447	     -2.97441584	     91.61605060	     44.67703124	      0.00000000	      0.00000000	    -15.83638585	    -14.16922430	     21.93868805	     34.04417764	     43.26567535	      0.00000000	      0.00000000
     21.17535714	     -7.14423995	     -4.55125218	     15.30611691	      1.03855217	      0.91861494	      0.47415075	      4.43512588	      1.85733098	    -17.71413744	     18.80716031	     18.80716031	     18.08116272	     -9.40648422	      0.26145444	     28.26865614	     -1.22466409	      8.12450067	     25.05604822	     25.05604822	      7.51672836	    -10.48736898	      0.90436173	     -9.08716532	      2.18668989	      4.40257014	     56.01051870	    -17.89345916	     -2.84202226	     91.07900586	     44.69016410	      0.00000000	      0.00000000	    -15.04707528	    -14.53213173	     21.85983824	     34.29910190	     43.29394147	      0.00000000	      0.00000000
     21.19928571	     -7.15702479	     -4.49685447	     14.82045494	      1.03974852	      0.91919945	      0.46976878	      3.87575987	      1.47300314	    -17.92807602	     18.61853984	     18.61853984	     17.60061456	     -8.36856755	     -0.89373487	     27.90243975	     -1.04140177	      8.02871139	     25.47091828	     25.47091828	      8.61835831	    -10.86455267	      2.85403208	     -8.96341748	      2.26308037	      3.97806320	     56.38631499	    -17.10993499	     -2.81711600	     87.00336017	     44.85690356	      0.00000000	      0.00000000	    -14.74251469	    -15.13529351	     22.45147535	     35.42464419	     43.41064255	      0.00000000	      0.00000000
     21.22321429	     -7.18365520	     -4.48176848	     14.23856273	      1.04096292	      0.91962509	      0.46552196	      3.47539406	      1.15162222	    -17.75269435	     18.65870153	     18.65870153	     17.39721827	     -7.74277912	     -1.08768292	     27.49919072	     -0.94954687	      7.81251743	     25.72711571	     25.72711571	      9.03902534	    -11.41812529	      3.05750169	     -8.88785764	      2.40473072	      4.37777474	     55.69795416	    -17.37815890	     -3.02455856	     85.30621944	     44.92247554	      0.00000000	      0.00000000	    -13.73165863	    -15.45633135	     22.32722974	     35.83368101	     43.47908674	      0.00000000	      0.00000000
     21.24714286	     -7.19729346	     -4.44993758	     13.62769324	      1.04205514	      0.91997051	      0.46130520	      3.12819441	      0.76822938	    -17.61376137	     18.81660248	     18.81660248	     17.23381432	     -7.04659949	     -1.40445570	     27.10530315	     -0.83165990	      7.60369455	     26.02498355	     26.02498355	      9.49490699	    -12.06098445	      3.45174713	     -8.82483633	      2.54917111	      4.60422116	     54.99778213	    -17.35483306	     -3.31907415	     82.86912797	     45.01507502	      0.00000000	      0.00000000	    -12.73848973	    -15.71492793	     22.28828573	     36.16439092	     43.54564849	      0.00000000	      0.00000000
     21.27107143	     -7.21900640	     -4.41793696	     12.96538950	      1.04304537	      0.92017466	      0.45718195	      2.87994704	      0.36428440	    -17.38776191	     19.10266229	     19.10266229	     17.05159456	     -6.43753789	     -1.71421646	     26.74820818	     -0.71708872	      7.38867165	     26.36905442	     26.36905442	      9.98581655	    -12.67480734	      3.84255478	     -8.79418851	      2.68676636	      4.76050011	     54.06289734	    -17.27389845	     -3.60311941	     80.25562671	     45.11048474	      0.00000000	      0.00000000	    -11.67261911	    -15.90451615	     22.22642890	     36.44488277	     43.60989886	      0.00000000	      0.00000000
     21.29500000	     -7.20196343	     -4.37046653	     12.31428611	      1.04392801	      0.92026884	      0.45301621	      2.65150556	     -0.08519720	    -17.19279856	     19.49009878	     19.49009878	     16.86639055	     -5.84426861	     -2.37785751	     26.42534327	     -0.57165205	      7.14038220	     26.85208720	     26.85208720	     10.77230903	    -13.24428103	      5.00664145	     -8.74332970	      2.85343226	      4.26923968	     53.48467900	    -16.22488111	     -4.01879733	     76.09759611	     45.26587967	      0.00000000	      0.00000000	    -10.76605700	    -15.95622677	     22.26852980	     36.35768064	     43.74179231	      0.00000000	      0.00000000
     21.31892857	     -7.12883063	     -4.38056568	     11.65314186	      1.04473776	      0.92027410	      0.44897707	      2.44315972	     -0.42826669	    -16.76972840	     19.95246779	     19.95246779	     16.77303315	     -5.58215231	     -2.52828940	     26.05835401	     -0.52988279	      6.81441883	     27.29087402	     27.29087402	     11.20770897	    -13.77826819	      4.95960314	     -8.92299899	      3.09656080	      4.24288269	     51.66119826	    -16.13697629	     -3.94858299	     74.80587302	     45.29869103	      0.00000000	      0.00000000	     -9.59770165	    -16.02893208	     22.09360319	     36.70928112	     43.78888174	      0.00000000	      0.00000000
     21.34285714	     -7.19409468	     -4.26741784	     10.96543742	      1.04521374	      0.91992029	      0.44481578	      2.60424202	     -1.09140068	    -16.53400699	     20.87773027	     20.87773027	     16.67891310	     -5.04961876	     -3.47600592	     25.88494589	     -0.25883589	      6.60992258	     27.85727140	     27.85727140	     11.98355342	    -14.45807801	      6.23833730	     -8.75241302	      3.15804840	      4.40149652	     50.56119463	    -15.86054252	     -5.03096214	     69.35754509	     45.51133361	      0.00000000	      0.00000000	     -7.79396975	    -15.79614463	     21.82476460	     36.04159910	     43.95896760	      0.00000000	      0.00000000
     21.36678571	     -7.21221566	     -4.22668454	     10.29221472	      1.04552377	      0.91935888	      0.44079106	      2.88896660	     -1.65349192	    -16.08683709	     22.04143212	     22.04143212	     16.65351753	     -4.91227782	     -3.99442195	     25.71648515	     -0.11681261	      6.26370677	     28.42023753	     28.42023753	     12.43559274	    -15.03543349	      6.39385926	     -8.80298063	      3.33133796	      4.71483177	     48.25718830	    -16.18108488	     -5.25856471	     66.86525241	     45.59182735	      0.00000000	      0.00000000	     -6.05045316	    -15.71507814	     21.50414275	     36.39770338	     44.04881824	      0.00000000	      0.00000000
